<?xml version="1.0" encoding="UTF-8"?>
<svg width="64px" height="64px" viewBox="0 0 64 64" version="1.1" xmlns="http://www.w3.org/2000/svg" xmlns:xlink="http://www.w3.org/1999/xlink">
    <!-- Generator: Sketch 55.2 (78181) - https://sketchapp.com -->
    <title>icons/benesseCorrect</title>
    <desc>Created with Sketch.</desc>
    <g id="Benesse-Icons" stroke="none" stroke-width="1" fill="none" fill-rule="evenodd">
        <g id="Icons-Overview---Special" transform="translate(-132.000000, -158.000000)">
            <g id="Icons" transform="translate(64.000000, 158.000000)">
                <g id="Correct">
                    <g id="Icon/Circle/Duotone" transform="translate(68.000000, 0.000000)">
                        <g id="Icon-/-Circle" transform="translate(32.000000, 32.000000) rotate(-90.000000) translate(-32.000000, -32.000000) translate(3.000000, 3.000000)">
                            <path d="M29,55.9285714 C14.1277607,55.9285714 2.07142857,43.8722393 2.07142857,29 C2.07142857,14.1277607 14.1277607,2.07142857 29,2.07142857 C43.8722393,2.07142857 55.9285714,14.1277607 55.9285714,29 C55.9285714,43.8722393 43.8722393,55.9285714 29,55.9285714 Z M29,46.6071429 C38.7241565,46.6071429 46.6071429,38.7241565 46.6071429,29 C46.6071429,19.2758435 38.7241565,11.3928571 29,11.3928571 C19.2758435,11.3928571 11.3928571,19.2758435 11.3928571,29 C11.3928571,38.7241565 19.2758435,46.6071429 29,46.6071429 Z" id="Background" fill="#FFFFFF" fill-rule="nonzero"></path>
                            <path d="M53.4555521,17.7118024 L44.6390456,50.9244415 C40.230407,54.0748229 34.8316866,55.9285714 29,55.9285714 C14.1277607,55.9285714 2.07142857,43.8722393 2.07142857,29 C2.07142857,14.1277607 14.1277607,2.07142857 29,2.07142857 C39.8413209,2.07142857 49.1863028,8.47801769 53.4555521,17.7118024 Z M29,46.6071429 C38.7241565,46.6071429 46.6071429,38.7241565 46.6071429,29 C46.6071429,19.2758435 38.7241565,11.3928571 29,11.3928571 C19.2758435,11.3928571 11.3928571,19.2758435 11.3928571,29 C11.3928571,38.7241565 19.2758435,46.6071429 29,46.6071429 Z" id="Color" fill="#F33662"></path>
                            <path d="M5.87835939,42.8115506 C3.46091758,38.7732571 2.07142857,34.0488948 2.07142857,29 C2.07142857,18.8903002 7.64250334,10.0817947 15.8821169,5.47701941 L5.87835939,42.8115506 Z" id="Shade" fill-opacity="0.24" fill-rule="nonzero"></path>
                            <path d="M29,53.8571429 C42.7282209,53.8571429 53.8571429,42.7282209 53.8571429,29 C53.8571429,15.2717791 42.7282209,4.14285714 29,4.14285714 C15.2717791,4.14285714 4.14285714,15.2717791 4.14285714,29 C4.14285714,42.7282209 15.2717791,53.8571429 29,53.8571429 Z M29,58 C12.9837423,58 0,45.0162577 0,29 C0,12.9837423 12.9837423,1.49655422e-15 29,1.49655422e-15 C45.0162577,1.49655422e-15 58,12.9837423 58,29 C58,45.0162577 45.0162577,58 29,58 Z M29,44.7428571 C37.6945399,44.7428571 44.7428571,37.6945399 44.7428571,29 C44.7428571,20.3054601 37.6945399,13.2571429 29,13.2571429 C20.3054601,13.2571429 13.2571429,20.3054601 13.2571429,29 C13.2571429,37.6945399 20.3054601,44.7428571 29,44.7428571 Z M29,48.6785714 C18.1318251,48.6785714 9.32142857,39.8681749 9.32142857,29 C9.32142857,18.1318251 18.1318251,9.32142857 29,9.32142857 C39.8681749,9.32142857 48.6785714,18.1318251 48.6785714,29 C48.6785714,39.8681749 39.8681749,48.6785714 29,48.6785714 Z" id="Outline" fill="#424B54" fill-rule="nonzero"></path>
                        </g>
                    </g>
                </g>
            </g>
            <g id="Slices" transform="translate(132.000000, 158.000000)"></g>
        </g>
    </g>
</svg>